<?xml version="1.0" encoding="utf-8"?>
<!-- Generator: Adobe Illustrator 19.1.0, SVG Export Plug-In . SVG Version: 6.00 Build 0)  -->
<svg version="1.1" id="Layer_1" xmlns="http://www.w3.org/2000/svg" xmlns:xlink="http://www.w3.org/1999/xlink" x="0px" y="0px"
	 width="195.7px" height="158px" viewBox="-57 72 195.7 158" style="enable-background:new -57 72 195.7 158;" xml:space="preserve"
	>
<style type="text/css">
	.st0{fill:#B3A96C;}
</style>
<title>Bastenier_v02</title>
<path class="st0" d="M6.3,160.9h70.5c3.4,0.1,6.4-2.5,6.5-6v-3.3c0-5.8-3.7-12.7-10.8-14.7c-0.1,0-0.1,0-0.2,0L62,134.7l-2.7-4
	c0,0-0.1-0.1-0.1-0.1c-1.3-1.7-3.7-2-5.3-0.7c0,0-0.1,0.1-0.1,0.1c0,0,0,0,0,0l-12.2,10.4L29.3,130c0,0,0,0,0,0
	c-1.6-1.3-4-1.1-5.4,0.6c0,0-0.1,0.1-0.1,0.1c0,0-0.1,0.1-0.1,0.1l-2.7,4l-10.4,2.2c-0.1,0-0.1,0-0.2,0c-7.1,2-10.8,8.9-10.8,14.7
	v3.3C-0.1,158.4,2.9,161.1,6.3,160.9L6.3,160.9L6.3,160.9z M39.1,149.6l2.4-2.5l2.5,2.5v6.4h-4.9V149.6z M78.4,151.6v3.3
	c-0.2,0.7-0.9,1.2-1.6,1.1H48.9v-2.5c0,0,0.1,0,0.1,0c0.7,0,1.3-0.4,1.8-0.9l10.6-13l9.8,2C76,143,78.4,147.7,78.4,151.6L78.4,151.6
	z M56,134.5l1.5,2.2l-8.7,10.7l-3.6-3.6L56,134.5z M27.1,134.5l10.8,9.3l-3.6,3.6l-8.8-10.7L27.1,134.5z M4.7,151.6
	c0-3.9,2.4-8.6,7.1-9.9l9.8-2l10.7,13c0.4,0.5,1.1,0.9,1.8,0.9c0,0,0.1,0,0.1,0v2.5H6.3c-0.7,0.1-1.4-0.4-1.6-1.1V151.6z"/>
<path class="st0" d="M88.2,187.9v14.7c0,1.4,1.1,2.5,2.5,2.5s2.5-1.1,2.5-2.5l0,0v-14.7c0-6.8-5.5-12.3-12.3-12.3H44v-7.4
	c0-1.4-1.1-2.5-2.5-2.5c-1.4,0-2.5,1.1-2.5,2.5c0,0,0,0,0,0v7.4H2.3c-6.8,0-12.3,5.5-12.3,12.3v14.7c0,1.4,1.1,2.5,2.5,2.5
	S-5,204-5,202.6v-14.7c0-4.1,3.3-7.4,7.4-7.4h36.8v22.1c0,1.4,1.1,2.5,2.5,2.5c1.4,0,2.5-1.1,2.5-2.5c0,0,0,0,0,0v-22.1h36.8
	C84.9,180.5,88.2,183.8,88.2,187.9L88.2,187.9z"/>
<path class="st0" d="M41.6,210c-5.4,0-9.8,4.4-9.8,9.8c0,5.4,4.4,9.8,9.8,9.8c5.4,0,9.8-4.4,9.8-9.8l0,0C51.4,214.4,47,210,41.6,210
	L41.6,210z M41.6,224.7c-2.7,0-4.9-2.2-4.9-4.9c0-2.7,2.2-4.9,4.9-4.9c2.7,0,4.9,2.2,4.9,4.9l0,0C46.5,222.5,44.3,224.7,41.6,224.7
	L41.6,224.7z"/>
<path class="st0" d="M90.6,210c-5.4,0-9.8,4.4-9.8,9.8c0,5.4,4.4,9.8,9.8,9.8c5.4,0,9.8-4.4,9.8-9.8l0,0
	C100.5,214.4,96.1,210,90.6,210L90.6,210z M90.6,224.7c-2.7,0-4.9-2.2-4.9-4.9s2.2-4.9,4.9-4.9s4.9,2.2,4.9,4.9v0
	C95.5,222.5,93.4,224.7,90.6,224.7L90.6,224.7z"/>
<path class="st0" d="M-7.5,210c-5.4,0-9.8,4.4-9.8,9.8c0,5.4,4.4,9.8,9.8,9.8c5.4,0,9.8-4.4,9.8-9.8c0,0,0,0,0,0
	C2.3,214.4-2.1,210-7.5,210L-7.5,210L-7.5,210z M-7.5,224.7c-2.7,0-4.9-2.2-4.9-4.9c0-2.7,2.2-4.9,4.9-4.9c2.7,0,4.9,2.2,4.9,4.9
	c0,0,0,0,0,0C-2.6,222.5-4.8,224.7-7.5,224.7C-7.5,224.7-7.5,224.7-7.5,224.7z"/>
<path class="st0" d="M19.4,108.8c0,6.4,2.3,12.6,6.4,17.6c4.3,5.1,9.9,7.9,15.8,7.9c5.9,0,11.5-2.8,15.8-7.9
	c4.1-5,6.3-11.2,6.4-17.6v-5.4c3-12.8,1.9-23.4,0.9-26.5c-0.5-1.2-1.7-1.8-3-1.7c-3.2,0.5-7.2-0.3-11.5-1.2c-7.1-1.4-15-3-21.3,1.2
	c-7,0-12.1,5.6-12.1,13.2c0,5.5,2.3,15.6,2.8,17.5C19.4,106,19.4,108.8,19.4,108.8z M53.5,123.2c-3.3,4-7.6,6.2-12,6.2
	c-4.4,0-8.7-2.2-12-6.2c-3.4-4.1-5.2-9.2-5.2-14.4v-2.1c0-3.7,2.4-9.1,3.8-11.8c7-0.8,14.1-0.4,21,1.1c2.5,0.6,5,1.4,7.4,2.4
	l2.2,5.2v5.1C58.7,114.1,56.9,119.2,53.5,123.2L53.5,123.2L53.5,123.2z M28.8,80.2c0.1,0,0.2,0,0.4,0c0.7,0.1,1.3-0.1,1.9-0.5
	c4.6-3.5,11.4-2.1,18.1-0.8c3.4,0.8,6.9,1.3,10.5,1.4c0.2,0,0.5,0,0.7,0c0.6,4.8,0.6,9.8-0.1,14.6c-0.2-0.2-0.4-0.3-0.6-0.5
	c-0.5-0.3-13-6.9-33.1-4.4c-0.8,0-1.6,0.5-2,1.2c-0.8,1.4-1.5,2.9-2.2,4.3c-0.4-2.4-0.7-4.7-0.8-7.1C21.6,84.4,23.8,80.2,28.8,80.2
	L28.8,80.2L28.8,80.2z"/>
</svg>
