<svg id="Layer_1" data-name="Layer 1" xmlns="http://www.w3.org/2000/svg" viewBox="0 0 189.72271 206"><title>Bastenier_v02</title><path d="M62.36355,112.209h66.18816a5.89526,5.89526,0,0,0,6.12144-5.62248V103.452c0-5.44356-3.47365-11.92212-10.111-13.76856-0.04932-.0126-0.10007-0.0252-0.149-0.03492L114.67191,87.626l-2.49732-3.76019c-0.02555-.03924-0.0522-0.07742-0.08028-0.11376a3.58367,3.58367,0,0,0-5.116-.62028c-0.014.01259-.02952,0.02375-0.04356,0.03671L95.45691,92.97562,83.98047,83.16849c-0.014-.01151-0.02952-0.02411-0.04356-0.03671a3.58357,3.58357,0,0,0-5.116.62028c-0.02808.03634-.05472,0.07452-0.08028,0.11376L76.24335,87.626,66.50211,89.6485c-0.049.00972-.09972,0.02232-0.149,0.03492-6.63732,1.84644-10.11095,8.325-10.11095,13.76856v3.13452a5.8934,5.8934,0,0,0,6.12143,5.62248h0Zm30.82788-10.6146,2.2752-2.31192,2.33316,2.34432v5.97384H93.19143v-6.00624Zm36.87479,1.8576v3.13452a1.37036,1.37036,0,0,1-1.51451,1.01412h-26.145V105.297c0.0378,0,.076-0.00144.11376-0.00252a2.30535,2.30535,0,0,0,1.67076-.84384L114.17691,92.229l9.21924,1.91376c4.379,1.25712,6.67007,5.625,6.67007,9.30924h0ZM109.02171,87.446l1.395,2.10239-8.1774,10.00836L98.84308,96.144Zm-27.12816,0,10.18836,8.70623L88.735,99.55246,80.5,89.543ZM60.849,103.452c0-3.68424,2.29068-8.05212,6.66864-9.3078l9.225-1.9152,10.0602,12.227a2.30131,2.30131,0,0,0,1.6776.83844c0.03384,0.00108.06768,0.00252,0.10261,0.00252v2.30364H62.36355A1.36928,1.36928,0,0,1,60.849,106.5865V103.452Zm0,0" style="fill:#b3a96c"/><path d="M139.27286,137.5537v13.82472a2.30418,2.30418,0,0,0,4.60837,0V137.5537a11.53322,11.53322,0,0,0-11.52-11.52H97.79835v-6.91164a2.30346,2.30346,0,1,0-4.60692,0v6.91164H58.63a11.53352,11.53352,0,0,0-11.52143,11.52v13.82472a2.30418,2.30418,0,0,0,4.60836,0V137.5537A6.91994,6.91994,0,0,1,58.63,130.64206H93.19143v20.73636a2.30346,2.30346,0,1,0,4.60692,0V130.64206h34.56144a6.91994,6.91994,0,0,1,6.91307,6.91164h0Zm0,0" style="fill:#b3a96c"/><path d="M95.49471,158.29042a9.21654,9.21654,0,1,0,9.21672,9.21635,9.22747,9.22747,0,0,0-9.21672-9.21635h0Zm0,13.82471a4.60836,4.60836,0,1,1,4.60836-4.60836,4.61327,4.61327,0,0,1-4.60836,4.60836h0Zm0,0" style="fill:#b3a96c"/><path d="M141.57616,158.29042a9.21654,9.21654,0,1,0,9.21672,9.21635,9.22717,9.22717,0,0,0-9.21672-9.21635h0Zm0,13.82471a4.60836,4.60836,0,1,1,4.60835-4.60836,4.61419,4.61419,0,0,1-4.60835,4.60836h0Zm0,0" style="fill:#b3a96c"/><path d="M49.41363,158.29042A9.21654,9.21654,0,1,0,58.63,167.50678a9.22753,9.22753,0,0,0-9.21636-9.21635h0Zm0,13.82471a4.60836,4.60836,0,1,1,4.608-4.60836,4.61333,4.61333,0,0,1-4.608,4.60836h0Zm0,0" style="fill:#b3a96c"/><path d="M74.67807,63.26014A26.16978,26.16978,0,0,0,80.66451,79.782c4.02192,4.81356,9.2826,7.4646,14.81472,7.4646,5.53248,0,10.7874-2.64961,14.79817-7.46171a26.18087,26.18087,0,0,0,5.96664-16.515V58.23131c2.804-12.04164,1.76076-21.93048.80567-24.85116a2.73819,2.73819,0,0,0-2.82348-1.56529c-3.02076.42768-6.80076-.32616-10.80432-1.12355-6.629-1.32193-14.10876-2.8109-19.9728,1.10123-6.58548.0126-11.36412,5.22828-11.36412,12.41138,0,5.19479,2.17836,14.66854,2.59308,16.42643v2.6298Zm32.0598,13.57453c-3.12047,3.74183-7.11864,5.80355-11.25864,5.80355-4.14108,0-8.14752-2.06279-11.27808-5.81077a21.488,21.488,0,0,1-4.91472-13.56731V61.26035c0-3.51289,2.25576-8.53164,3.60972-11.10636a58.36542,58.36542,0,0,1,19.69308,1.07567,39.11955,39.11955,0,0,1,6.9444,2.295l2.102,4.919v4.82617a21.50619,21.50619,0,0,1-4.8978,13.5648h0Zm-23.265-40.4352a2.24369,2.24369,0,0,0,.35028-0.02952,2.295,2.295,0,0,0,1.742-.43452c4.306-3.24721,10.737-1.96488,16.95672-.72577a52.11552,52.11552,0,0,0,9.83124,1.33308c0.229,0,.45684-0.00432.68328-0.01115a53.40094,53.40094,0,0,1-.05328,13.71239,2.325,2.325,0,0,0-.56952-0.44171c-0.4896-.26569-12.16548-6.45877-31.08816-4.10761A2.29489,2.29489,0,0,0,79.465,46.83515a45.29537,45.29537,0,0,0-2.0502,4.07664,45.11111,45.11111,0,0,1-.72144-6.70934c0-3.884,2.09665-7.803,6.77952-7.803h0Zm0,0" style="fill:#b3a96c"/></svg>