<svg id="Layer_1" data-name="Layer 1" xmlns="http://www.w3.org/2000/svg" viewBox="0 0 189.72271 206"><title>Bastenier_v02</title><path d="M121.06056,41.74823a2.0402,2.0402,0,0,0-1.606,3.75106,62.2288,62.2288,0,1,1-6.21128-2.27664,2.04055,2.04055,0,0,0,1.199-3.901,66.61082,66.61082,0,1,0,6.61826,2.42658h0Zm0,0" style="fill:#b3a96c"/><path d="M135.99389,73.79459a2.03994,2.03994,0,0,0,1.62179-3.27523c-0.82875-1.08987-1.71155-2.16138-2.62191-3.18545A2.03964,2.03964,0,0,0,131.944,70.043c0.84252,0.9486,1.65954,1.94055,2.42454,2.94678a2.03759,2.03759,0,0,0,1.62538.80478h0Zm0,0" style="fill:#b3a96c"/><path d="M94.86135,152.60947a49.26849,49.26849,0,0,1-28.77318-9.19018,2.03971,2.03971,0,1,0-2.36894,3.32112,53.69986,53.69986,0,0,0,77.79694-70.32595,2.03966,2.03966,0,0,0-3.542,2.02368,49.62151,49.62151,0,0,1-43.11285,74.17133h0Zm0,0" style="fill:#b3a96c"/><path d="M56.45785,137.60019a2.03985,2.03985,0,0,0-.0357,2.88506c0.66707,0.68494,1.36271,1.35864,2.06193,2.0038a2.04013,2.04013,0,0,0,2.76522-3.00034c-0.64769-.5972-1.28928-1.22093-1.90689-1.85231a2.03927,2.03927,0,0,0-2.88456-.0362h0Zm0,0" style="fill:#b3a96c"/><path d="M94.86135,49.31051a53.69656,53.69656,0,0,0-43.95587,84.52841,2.04051,2.04051,0,0,0,3.339-2.3465,49.61247,49.61247,0,0,1,73.65521-65.50134,2.0395,2.0395,0,1,0,2.71728-3.04215A53.59192,53.59192,0,0,0,94.86135,49.31051h0Zm0,0" style="fill:#b3a96c"/><path d="M82.68919,85.879a20.47882,20.47882,0,0,1,30.18333,9.39319,2.0398,2.0398,0,1,0,3.77706-1.54174A24.56028,24.56028,0,0,0,80.44774,82.46867,2.04051,2.04051,0,0,0,82.68919,85.879h0Zm0,0" style="fill:#b3a96c"/><path d="M84.29671,104.49607H81.05923a2.04,2.04,0,0,0,0,4.08h3.23748a2.04,2.04,0,1,0,0-4.08h0Zm0,0" style="fill:#b3a96c"/><path d="M64.76116,106.53607a2.0414,2.0414,0,0,0,2.04,2.04h3.2074a24.55056,24.55056,0,0,0,46.32432,4.43651,2.03921,2.03921,0,1,0-3.723-1.66516,20.471,20.471,0,0,1-38.3877-2.77135h0.92616a2.04,2.04,0,1,0,0-4.08H73.5051c-0.0362-.49417-0.0617-0.99194-0.0617-1.49582,0-.50236.02193-1.00011,0.05559-1.49634H84.29875a2.04,2.04,0,0,0,0-4.08H74.21044A20.31923,20.31923,0,0,1,77.631,90.59246a2.03971,2.03971,0,0,0-3.2436-2.474,24.2945,24.2945,0,0,0-4.38651,9.30546H66.8032a2.04,2.04,0,0,0,0,4.08h2.60966c-0.02957.49623-.04947,0.994-0.04947,1.49634,0,0.50184.0199,0.99961,0.04947,1.49582H66.8032a2.04054,2.04054,0,0,0-2.042,2.04h0Zm0,0" style="fill:#b3a96c"/></svg>