<?xml version="1.0" encoding="utf-8"?>
<!-- Generator: Adobe Illustrator 19.1.0, SVG Export Plug-In . SVG Version: 6.00 Build 0)  -->
<svg version="1.1" id="Layer_1" xmlns="http://www.w3.org/2000/svg" xmlns:xlink="http://www.w3.org/1999/xlink" x="0px" y="0px"
	 width="195px" height="158px" viewBox="-56.6 72 195 158" style="enable-background:new -56.6 72 195 158;" xml:space="preserve">
<style type="text/css">
	.st0{fill:#B3A96C;}
</style>
<title>Bastenier_v02</title>
<path class="st0" d="M70.9,79.2c-1.2-0.5-2.6,0-3.2,1.3c-0.5,1.2,0,2.6,1.3,3.2c37.2,15.9,54.4,58.9,38.5,96.1
	c-15.9,37.2-58.9,54.4-96.1,38.5s-54.4-58.9-38.5-96.1c14.7-34.4,53-52.2,88.8-41.2c1.3,0.4,2.6-0.3,3-1.6c0.4-1.3-0.3-2.6-1.6-3
	c-41.4-12.7-85.2,10.5-98,51.9s10.5,85.2,51.9,98c41.4,12.7,85.2-10.5,98-51.9C126.8,136,107.8,95,70.9,79.2L70.9,79.2L70.9,79.2z"
	/>
<path class="st0" d="M88.5,116.9c1.3,0,2.4-1.1,2.4-2.4c0-0.5-0.2-1-0.5-1.5c-1-1.3-2-2.5-3.1-3.7c-0.9-1-2.4-1.1-3.4-0.2
	c-1,0.9-1.1,2.4-0.2,3.4c1,1.1,2,2.3,2.9,3.5C87,116.5,87.8,116.9,88.5,116.9L88.5,116.9L88.5,116.9z"/>
<path class="st0" d="M40.1,209.6c-12.1,0-24-3.8-33.9-10.8c-1.1-0.8-2.6-0.5-3.3,0.6c-0.8,1.1-0.5,2.6,0.6,3.3l0,0
	c28.4,20.2,67.9,13.6,88.1-14.9c14.3-20,15.6-46.5,3.4-67.9c-0.7-1.2-2.1-1.6-3.3-0.9c-1.2,0.7-1.6,2.1-0.9,3.3
	c16,28,6.2,63.7-21.9,79.6C60.2,207,50.2,209.6,40.1,209.6L40.1,209.6L40.1,209.6z"/>
<path class="st0" d="M-5.1,192c-0.9,0.9-1,2.4,0,3.4c0,0,0,0,0,0c0.8,0.8,1.6,1.6,2.4,2.4c1,0.9,2.5,0.8,3.4-0.1
	c0.9-1,0.8-2.5-0.1-3.4c-0.8-0.7-1.5-1.4-2.2-2.2C-2.6,191.1-4.1,191-5.1,192C-5.1,192-5.1,192-5.1,192L-5.1,192L-5.1,192z"/>
<path class="st0" d="M40.1,88.1c-34.9,0-63.2,28.3-63.2,63.2c0,13,4,25.6,11.5,36.3c0.8,1.1,2.3,1.3,3.3,0.6
	c1.1-0.8,1.3-2.3,0.6-3.3c-18.5-26.4-12.1-62.8,14.3-81.3c22.2-15.6,52.2-13.8,72.4,4.2c1,0.9,2.5,0.8,3.4-0.2
	c0.9-1,0.8-2.5-0.2-3.4C70.6,93.8,55.6,88.1,40.1,88.1L40.1,88.1z"/>
<path class="st0" d="M25.8,131.1c11.1-7.3,26.1-4.2,33.4,7c0.8,1.3,1.6,2.7,2.2,4.1c0.5,1.2,1.9,1.8,3.1,1.3
	c1.2-0.5,1.8-1.9,1.3-3.1l0,0c-6-14.8-22.9-21.9-37.7-15.8c-1.7,0.7-3.4,1.6-4.9,2.6c-1.1,0.7-1.4,2.2-0.7,3.3
	C23.2,131.5,24.7,131.8,25.8,131.1L25.8,131.1z"/>
<path class="st0" d="M27.7,153h-3.8c-1.3,0-2.4,1.1-2.4,2.4c0,1.3,1.1,2.4,2.4,2.4h3.8c1.3,0,2.4-1.1,2.4-2.4
	C30.1,154.1,29,153,27.7,153L27.7,153z"/>
<path class="st0" d="M4.7,155.4c0,1.3,1.1,2.4,2.4,2.4h3.8c3.6,15.5,19.2,25.2,34.7,21.6c8.8-2.1,16.1-8.1,19.8-16.3
	c0.5-1.2,0-2.6-1.2-3.2c-1.2-0.5-2.6,0-3.2,1.2c0,0,0,0,0,0c-5.4,12.1-19.7,17.6-31.8,12.2c-6.5-2.9-11.4-8.6-13.4-15.4h1.1
	c1.3,0,2.4-1.1,2.4-2.4c0-1.3-1.1-2.4-2.4-2.4H15c0-0.6-0.1-1.2-0.1-1.8c0-0.6,0-1.2,0.1-1.8h12.7c1.3,0,2.4-1.1,2.4-2.4
	s-1.1-2.4-2.4-2.4H15.8c0.8-2.9,2.2-5.6,4-8c0.8-1.1,0.6-2.6-0.5-3.4c-1.1-0.8-2.6-0.6-3.4,0.5c-2.5,3.2-4.2,7-5.2,10.9H7.1
	c-1.3,0-2.4,1.1-2.4,2.4c0,1.3,1.1,2.4,2.4,2.4h3.1c0,0.6-0.1,1.2-0.1,1.8c0,0.6,0,1.2,0.1,1.8H7.1C5.8,153,4.7,154.1,4.7,155.4
	C4.7,155.4,4.7,155.4,4.7,155.4L4.7,155.4L4.7,155.4z"/>
</svg>
