<?xml version="1.0" encoding="utf-8"?>
<!-- Generator: Adobe Illustrator 19.1.0, SVG Export Plug-In . SVG Version: 6.00 Build 0)  -->
<svg version="1.1" id="Layer_1" xmlns="http://www.w3.org/2000/svg" xmlns:xlink="http://www.w3.org/1999/xlink" x="0px" y="0px"
	 width="194.6px" height="158.1px" viewBox="0 0 194.6 158.1" style="enable-background:new 0 0 194.6 158.1;" xml:space="preserve"
	>
<style type="text/css">
	.st0{fill:#B3A96C;}
</style>
<g>
	<path class="st0" d="M193.6,102.1l-12-51.1c0,0,0,0,0,0c-1.7-6.8-7.8-11.5-14.8-11.5h-8.7v-9c5,0,9.1-4.1,9.1-9.1V9.1
		c0-5-4.1-9.1-9.1-9.1h-39.5c-5,0-9.1,4.1-9.1,9.1v15.2H85.1V9.1c0-5-4.1-9.1-9.1-9.1H36.5c-5,0-9.1,4.1-9.1,9.1v12.2
		c0,5,4.1,9.1,9.1,9.1v9h-8.7c-7,0-13.1,4.7-14.7,11.5c0,0,0,0,0,0L1,102.1c-0.7,2.6-1,5.4-1,8.1V146c0,6.7,5.5,12.2,12.2,12.2h51.7
		c6.7,0,12.2-5.5,12.2-12.2v-36.5h42.6V146c0,6.7,5.5,12.2,12.2,12.2h51.7c6.7,0,12.2-5.5,12.2-12.2v-35.8
		C194.6,107.4,194.3,104.7,193.6,102.1L193.6,102.1z M182.4,152h-51.7c-3.4,0-6.1-2.7-6.1-6.1v-6.1h48.7c1.7,0,3-1.4,3-3s-1.4-3-3-3
		h-48.7v-27.4c0-1.7-1.4-3-3-3H73c-1.7,0-3,1.4-3,3v27.4h-3c-1.7,0-3,1.4-3,3s1.4,3,3,3h3v6.1c0,3.4-2.7,6.1-6.1,6.1H12.2
		c-3.4,0-6.1-2.7-6.1-6.1v-6.1h48.7c1.7,0,3-1.4,3-3s-1.4-3-3-3H6.1v-23.6c0-2.2,0.3-4.5,0.8-6.6c0,0,0,0,0,0l12-51.1
		c1-4.1,4.7-6.9,8.8-6.9h11.8c1.7,0,3-1.4,3-3V30.4h18.2c1.7,0,3-1.4,3-3c0-1.7-1.4-3-3-3H36.5c-1.7,0-3-1.4-3-3V9.1
		c0-1.7,1.4-3,3-3H76c1.7,0,3,1.4,3,3v15.2H73c-1.7,0-3,1.4-3,3v66.9c0,1.7,1.4,3,3,3c1.7,0,3-1.4,3-3V30.4h42.6v63.9
		c0,1.7,1.4,3,3,3c1.7,0,3-1.4,3-3V30.4h12.2c1.7,0,3-1.4,3-3c0-1.7-1.4-3-3-3h-21.3V9.1c0-1.7,1.4-3,3-3h39.5c1.7,0,3,1.4,3,3v12.2
		c0,1.7-1.4,3-3,3H149c-1.7,0-3,1.4-3,3c0,1.7,1.4,3,3,3h3v12.1c0,1.7,1.4,3,3,3h11.8c4.2,0,7.8,2.8,8.8,6.9l12,51.1c0,0,0,0,0,0
		c0.5,2.2,0.8,4.4,0.8,6.6v23.6h-3c-1.7,0-3,1.4-3,3s1.4,3,3,3h3v6.1C188.5,149.3,185.8,152,182.4,152L182.4,152z M182.4,152"/>
</g>
</svg>
