<?xml version="1.0" encoding="utf-8"?>
<!-- Generator: Adobe Illustrator 19.1.0, SVG Export Plug-In . SVG Version: 6.00 Build 0)  -->
<svg version="1.1" id="Layer_1" xmlns="http://www.w3.org/2000/svg" xmlns:xlink="http://www.w3.org/1999/xlink" x="0px" y="0px"
	 width="176.3px" height="179.6px" viewBox="0 0 176.3 179.6" style="enable-background:new 0 0 176.3 179.6;" xml:space="preserve"
	>
<style type="text/css">
	.st0{fill:#B3A96C;}
</style>
<g>
	<path class="st0" d="M123.8,23.9c0-1.5-1.2-2.7-2.7-2.7H43.4c-1.5,0-2.7,1.2-2.7,2.7c0,1.5,1.2,2.7,2.7,2.7h77.6
		C122.6,26.7,123.8,25.4,123.8,23.9L123.8,23.9z M123.8,23.9"/>
	<path class="st0" d="M34.5,26.7c1.5,0,2.7-1.2,2.7-2.7c0-1.5-1.2-2.7-2.7-2.7h-4.7c-1.5,0-2.7,1.2-2.7,2.7c0,1.5,1.2,2.7,2.7,2.7
		H34.5z M34.5,26.7"/>
	<path class="st0" d="M21,26.7c1.5,0,2.7-1.2,2.7-2.7c0-1.5-1.2-2.7-2.7-2.7h-3.7c-1.5,0-2.7,1.2-2.7,2.7c0,1.5,1.2,2.7,2.7,2.7H21z
		 M21,26.7"/>
	<path class="st0" d="M62.5,79.5c1.5,0,2.7-1.2,2.7-2.7v-36c0-1.5-1.2-2.7-2.7-2.7H18.6c-1.5,0-2.7,1.2-2.7,2.7v68.7
		c0,1.5,1.2,2.7,2.7,2.7h43.9c1.5,0,2.7-1.2,2.7-2.7V89.4c0-1.5-1.2-2.7-2.7-2.7c-1.5,0-2.7,1.2-2.7,2.7v17.4H21.4V43.5h38.4v33.3
		C59.8,78.3,61,79.5,62.5,79.5L62.5,79.5z M62.5,79.5"/>
	<path class="st0" d="M79,158.5h43.9c1.5,0,2.7-1.2,2.7-2.7v-26.5c0-1.5-1.2-2.7-2.7-2.7H79c-1.5,0-2.7,1.2-2.7,2.7v26.5
		C76.2,157.3,77.5,158.5,79,158.5L79,158.5z M81.7,132.1h38.4v21H81.7L81.7,132.1L81.7,132.1z M81.7,132.1"/>
	<path class="st0" d="M62.5,121.4H18.6c-1.5,0-2.7,1.2-2.7,2.7c0,1.5,1.2,2.7,2.7,2.7h43.9c1.5,0,2.7-1.2,2.7-2.7
		C65.3,122.7,64,121.4,62.5,121.4L62.5,121.4z M62.5,121.4"/>
	<path class="st0" d="M62.5,136.6h-8.3c-1.5,0-2.7,1.2-2.7,2.7c0,1.5,1.2,2.7,2.7,2.7h8.3c1.5,0,2.7-1.2,2.7-2.7
		C65.3,137.8,64,136.6,62.5,136.6L62.5,136.6z M62.5,136.6"/>
	<path class="st0" d="M18.6,142.1H43c1.5,0,2.7-1.2,2.7-2.7c0-1.5-1.2-2.7-2.7-2.7H18.6c-1.5,0-2.7,1.2-2.7,2.7
		C15.9,140.9,17.1,142.1,18.6,142.1L18.6,142.1z M18.6,142.1"/>
	<path class="st0" d="M18.6,157.3h43.9c1.5,0,2.7-1.2,2.7-2.7c0-1.5-1.2-2.7-2.7-2.7H18.6c-1.5,0-2.7,1.2-2.7,2.7
		C15.9,156.1,17.1,157.3,18.6,157.3L18.6,157.3z M18.6,157.3"/>
	<path class="st0" d="M122.8,38h-20.5c-1.5,0-2.7,1.2-2.7,2.7c0,1.5,1.2,2.7,2.7,2.7h20.5c1.5,0,2.7-1.2,2.7-2.7
		C125.6,39.2,124.4,38,122.8,38L122.8,38z M122.8,38"/>
	<path class="st0" d="M79,38c-1.5,0-2.7,1.2-2.7,2.7c0,1.5,1.2,2.7,2.7,2.7h9.8c1.5,0,2.7-1.2,2.7-2.7c0-1.5-1.2-2.7-2.7-2.7H79z
		 M79,38"/>
	<path class="st0" d="M122.8,53.2H79c-1.5,0-2.7,1.2-2.7,2.7c0,1.5,1.2,2.7,2.7,2.7h43.9c1.5,0,2.7-1.2,2.7-2.7
		C125.6,54.4,124.4,53.2,122.8,53.2L122.8,53.2z M122.8,53.2"/>
	<path class="st0" d="M122.8,68.4H79c-1.5,0-2.7,1.2-2.7,2.7c0,1.5,1.2,2.7,2.7,2.7h43.9c1.5,0,2.7-1.2,2.7-2.7
		C125.6,69.6,124.4,68.4,122.8,68.4L122.8,68.4z M122.8,68.4"/>
	<path class="st0" d="M122.8,82.7h-12.1c-1.5,0-2.7,1.2-2.7,2.7c0,1.5,1.2,2.7,2.7,2.7h12.1c1.5,0,2.7-1.2,2.7-2.7
		C125.6,83.9,124.4,82.7,122.8,82.7L122.8,82.7z M122.8,82.7"/>
	<path class="st0" d="M79,88.2h20.6c1.5,0,2.7-1.2,2.7-2.7c0-1.5-1.2-2.7-2.7-2.7H79c-1.5,0-2.7,1.2-2.7,2.7
		C76.2,87,77.5,88.2,79,88.2L79,88.2z M79,88.2"/>
	<path class="st0" d="M122.8,97.9H79c-1.5,0-2.7,1.2-2.7,2.7c0,1.5,1.2,2.7,2.7,2.7h43.9c1.5,0,2.7-1.2,2.7-2.7
		C125.6,99.1,124.4,97.9,122.8,97.9L122.8,97.9z M122.8,97.9"/>
	<path class="st0" d="M122.8,113.1H79c-1.5,0-2.7,1.2-2.7,2.7c0,1.5,1.2,2.7,2.7,2.7h43.9c1.5,0,2.7-1.2,2.7-2.7
		C125.6,114.3,124.4,113.1,122.8,113.1L122.8,113.1z M122.8,113.1"/>
	<path class="st0" d="M147,126.9h12.1c1.5,0,2.7-1.2,2.7-2.7c0-1.5-1.2-2.7-2.7-2.7H147c-1.5,0-2.7,1.2-2.7,2.7
		C144.2,125.7,145.5,126.9,147,126.9L147,126.9z M147,126.9"/>
	<g>
		<path class="st0" d="M2.7,135.8c1.5,0,2.7-1.2,2.7-2.7V5.5h131.1l0,33.7c0,1.5,1.2,2.7,2.7,2.7h0c1.5,0,2.7-1.2,2.7-2.7V2.7
			c0-1.5-1.2-2.7-2.7-2.7H2.7C1.2,0,0,1.2,0,2.7V133C0,134.5,1.2,135.8,2.7,135.8L2.7,135.8z M2.7,135.8"/>
		<path class="st0" d="M173.5,105.8H142V54.4c0-1.4-1-2.7-2.5-2.8c-1.6-0.2-3,1.1-3,2.7l0,105.5c0,5.6,2.4,10.7,6.2,14.4H19.9
			c-7.9,0-14.4-6.4-14.4-14.4v-14.6c0-1.5-1.2-2.7-2.7-2.7c-1.5,0-2.7,1.2-2.7,2.7v14.6c0,10.9,8.9,19.9,19.9,19.9h135.9
			c0.1,0,0.1,0,0.2,0c0.3,0,0.7,0,1,0c10.8-0.3,19.4-9.4,19.4-20.2v-50.8C176.3,107,175.1,105.8,173.5,105.8L173.5,105.8z
			 M170.8,159.7c0,7.9-6.4,14.4-14.4,14.4c-7.9,0-14.4-6.4-14.4-14.4l0-2.4h17c1.5,0,2.7-1.2,2.7-2.7c0-1.5-1.2-2.7-2.7-2.7h-17
			v-9.7h17c1.5,0,2.7-1.2,2.7-2.7c0-1.5-1.2-2.7-2.7-2.7h-17v-25.3h28.8L170.8,159.7L170.8,159.7z M170.8,159.7"/>
	</g>
</g>
</svg>
