<?xml version="1.0" encoding="utf-8"?>
<!-- Generator: Adobe Illustrator 19.1.0, SVG Export Plug-In . SVG Version: 6.00 Build 0)  -->
<svg version="1.1" id="Layer_1" xmlns="http://www.w3.org/2000/svg" xmlns:xlink="http://www.w3.org/1999/xlink" x="0px" y="0px"
	 width="195px" height="158px" viewBox="0 0 195 158" style="enable-background:new 0 0 195 158;" xml:space="preserve">
<style type="text/css">
	.st0{fill:#B3A96C;}
</style>
<g>
	<path class="st0" d="M97.8,137.9c6.9,0,12.5-5.6,12.5-12.5v-2.5c0-6.9-5.6-12.5-12.5-12.5c-6.9,0-12.5,5.6-12.5,12.5v2.5
		C85.3,132.3,90.9,137.9,97.8,137.9L97.8,137.9z M90.3,122.9c0-4.1,3.4-7.5,7.5-7.5c4.1,0,7.5,3.4,7.5,7.5v2.5
		c0,4.1-3.4,7.5-7.5,7.5c-4.1,0-7.5-3.4-7.5-7.5V122.9z M90.3,122.9"/>
	<path class="st0" d="M107.8,138h-2.1c-0.9,0-1.7,0.4-2.1,1.2c-1.5,2.4-3.6,3.7-5.8,3.7c-2.2,0-4.3-1.4-5.8-3.7
		c-0.5-0.7-1.3-1.2-2.1-1.2h-2.1c-5.6,0-10,5.3-10,9.9v5.4c0,2.5,2.1,4.6,4.6,4.6h30.8c2.5,0,4.6-2,4.6-4.6v-5.4
		c0-2.2-1-4.6-2.7-6.5C113.1,139.2,110.5,138,107.8,138L107.8,138z M112.7,152.9h-30v-5c0-1.7,1.9-4.9,5-4.9h0.8
		c2.4,3.1,5.7,4.9,9.2,4.9c3.6,0,6.8-1.8,9.2-4.9h0.8c3,0,5,3.2,5,4.9V152.9z M112.7,152.9"/>
	<path class="st0" d="M97.8,28.1c6.9,0,12.5-5.6,12.5-12.5v-2.5c0-6.9-5.6-12.5-12.5-12.5c-6.9,0-12.5,5.6-12.5,12.5v2.5
		C85.3,22.5,90.9,28.1,97.8,28.1L97.8,28.1z M90.3,13.1c0-4.1,3.4-7.5,7.5-7.5c4.1,0,7.5,3.4,7.5,7.5v2.5c0,4.1-3.4,7.5-7.5,7.5
		c-4.1,0-7.5-3.4-7.5-7.5V13.1z M90.3,13.1"/>
	<path class="st0" d="M107.8,28.2h-2.1c-0.9,0-1.7,0.4-2.1,1.2c-1.5,2.4-3.6,3.7-5.8,3.7c-2.2,0-4.3-1.4-5.8-3.7
		c-0.5-0.7-1.3-1.2-2.1-1.2h-2.1c-5.6,0-10,5.3-10,9.9v5.4c0,2.5,2.1,4.6,4.6,4.6h30.8c2.5,0,4.6-2,4.6-4.6v-5.4
		c0-2.2-1-4.6-2.7-6.5C113.1,29.4,110.5,28.2,107.8,28.2L107.8,28.2z M112.7,43.1h-30v-5c0-1.7,1.9-4.9,5-4.9h0.8
		c2.4,3.1,5.7,4.9,9.2,4.9c3.6,0,6.8-1.8,9.2-4.9h0.8c3,0,5,3.2,5,4.9V43.1z M112.7,43.1"/>
	<path class="st0" d="M145.2,68v2.5c0,6.9,5.6,12.5,12.5,12.5c6.9,0,12.5-5.6,12.5-12.5V68c0-6.9-5.6-12.5-12.5-12.5
		C150.8,55.5,145.2,61.1,145.2,68L145.2,68z M150.2,68c0-4.1,3.4-7.5,7.5-7.5c4.1,0,7.5,3.4,7.5,7.5v2.5c0,4.1-3.4,7.5-7.5,7.5
		c-4.1,0-7.5-3.4-7.5-7.5V68z M150.2,68"/>
	<path class="st0" d="M174.9,86.5c-2-2.2-4.5-3.4-7.3-3.4h-2.1c-0.9,0-1.7,0.4-2.1,1.2c-1.5,2.4-3.6,3.7-5.8,3.7
		c-2.2,0-4.3-1.4-5.8-3.7c-0.5-0.7-1.3-1.2-2.1-1.2h-2.1c-5.6,0-10,5.3-10,9.9v5.4c0,2.5,2.1,4.6,4.6,4.6h30.8c2.5,0,4.6-2,4.6-4.6
		V93C177.6,90.8,176.6,88.4,174.9,86.5L174.9,86.5z M172.6,98h-30v-5c0-1.7,1.9-4.9,5-4.9h0.8c2.4,3.1,5.7,4.9,9.2,4.9
		c3.6,0,6.8-1.8,9.2-4.9h0.8c3,0,5,3.2,5,4.9V98z M172.6,98"/>
	<path class="st0" d="M37.9,83c6.9,0,12.5-5.6,12.5-12.5V68c0-6.9-5.6-12.5-12.5-12.5c-6.9,0-12.5,5.6-12.5,12.5v2.5
		C25.4,77.4,31,83,37.9,83L37.9,83z M30.4,68c0-4.1,3.4-7.5,7.5-7.5c4.1,0,7.5,3.4,7.5,7.5v2.5c0,4.1-3.4,7.5-7.5,7.5
		c-4.1,0-7.5-3.4-7.5-7.5V68z M30.4,68"/>
	<path class="st0" d="M57.8,98.4V93c0-2.2-1-4.6-2.7-6.5c-2-2.2-4.5-3.4-7.3-3.4h-2.1c-0.9,0-1.7,0.4-2.1,1.2
		c-1.5,2.4-3.6,3.7-5.8,3.7c-2.2,0-4.3-1.4-5.8-3.7c-0.5-0.7-1.3-1.2-2.1-1.2h-2.1c-5.6,0-10,5.3-10,9.9v5.4c0,2.5,2.1,4.6,4.6,4.6
		h30.8C55.8,103,57.8,100.9,57.8,98.4L57.8,98.4z M52.8,98h-30v-5c0-1.7,1.9-4.9,5-4.9h0.8c2.4,3.1,5.7,4.9,9.2,4.9
		c3.6,0,6.8-1.8,9.2-4.9h0.8c3,0,5,3.2,5,4.9L52.8,98L52.8,98z M52.8,98"/>
	<path class="st0" d="M74.3,135.6C62,130.4,51.6,121,45.2,109.3c-0.7-1.2-2.2-1.7-3.4-1c-1.2,0.7-1.7,2.2-1,3.4
		c7,12.7,18.2,22.9,31.5,28.6c0.3,0.1,0.7,0.2,1,0.2c1,0,1.9-0.6,2.3-1.5C76.1,137.6,75.5,136.2,74.3,135.6L74.3,135.6z M74.3,135.6
		"/>
	<path class="st0" d="M153.7,108.3c-1.2-0.7-2.7-0.2-3.4,1c-6.4,11.7-16.8,21.1-29.1,26.4c-1.3,0.5-1.9,2-1.3,3.3
		c0.4,0.9,1.3,1.5,2.3,1.5c0.3,0,0.7-0.1,1-0.2c13.3-5.7,24.5-15.8,31.5-28.6C155.4,110.4,154.9,108.9,153.7,108.3L153.7,108.3z
		 M153.7,108.3"/>
	<path class="st0" d="M116.9,23.7c13.3,4.5,24.7,13.6,32,25.6c0.5,0.8,1.3,1.2,2.1,1.2c0.4,0,0.9-0.1,1.3-0.4
		c1.2-0.7,1.5-2.3,0.8-3.4c-7.9-13-20.3-22.9-34.7-27.8c-1.3-0.4-2.7,0.3-3.2,1.6C114.9,21.9,115.6,23.3,116.9,23.7L116.9,23.7z
		 M116.9,23.7"/>
	<path class="st0" d="M43.1,50.2c0.4,0.2,0.9,0.4,1.3,0.4c0.8,0,1.7-0.4,2.1-1.2c7.3-12,18.7-21.1,32-25.6c1.3-0.4,2-1.9,1.6-3.2
		c-0.4-1.3-1.9-2-3.2-1.6c-14.4,4.9-26.7,14.7-34.7,27.8C41.6,47.9,42,49.5,43.1,50.2L43.1,50.2z M43.1,50.2"/>
</g>
</svg>
