<?xml version="1.0" encoding="utf-8"?>
<!-- Generator: Adobe Illustrator 19.1.0, SVG Export Plug-In . SVG Version: 6.00 Build 0)  -->
<svg version="1.1" id="Layer_1" xmlns="http://www.w3.org/2000/svg" xmlns:xlink="http://www.w3.org/1999/xlink" x="0px" y="0px"
	 width="355px" height="93.6px" viewBox="0 0 355 93.6" style="enable-background:new 0 0 355 93.6;" xml:space="preserve">
<style type="text/css">
	.st0{fill:#363940;}
</style>
<g>
	<path class="st0" d="M46.8,93.6L0,46.8L46.8,0l46.8,46.8L46.8,93.6z M7,46.8l39.8,39.8l39.8-39.8L46.8,7L7,46.8z"/>
</g>
<g>
	<path class="st0" d="M58.1,41c0,2.8-1.2,4.6-3.4,5.4c2.4,0.6,3.9,2.6,3.9,6v0.6c0,5.8-2.6,7.5-9,7.5H35.1v-3.9
		c1.3-0.2,2.3-0.3,3.1-0.4V37.2c-0.7-0.1-1.8-0.2-3.2-0.4V33h14c6.5,0,9.1,2.3,9.1,7.6V41z M48.8,44.5c2.8,0,4-0.7,4-3.1v-0.6
		c0-2.4-0.7-3.4-3.7-3.4h-5.6v7.1H48.8z M53.1,51.7c0-2.4-1.5-3-4.3-3h-5.2v7.5h5.2c2.9,0,4.3-1.3,4.3-3.8V51.7z"/>
</g>
<g>
	<path class="st0" d="M120.6,43.3c0,1.9-0.8,3-2.2,3.6c1.6,0.4,2.6,1.7,2.6,4v0.4c0,3.8-1.7,4.9-5.9,5h-9.5v-2.5
		c0.9-0.1,1.5-0.2,2-0.2V40.8c-0.5-0.1-1.2-0.1-2.1-0.2V38h9.2c4.3,0,6,1.5,6,5V43.3z M114.5,45.6c1.9,0,2.6-0.5,2.6-2v-0.4
		c0-1.6-0.5-2.3-2.4-2.3h-3.7v4.6H114.5z M117.3,50.3c0-1.6-1-2-2.8-2h-3.4v4.9h3.4c1.9,0,2.8-0.8,2.8-2.5V50.3z"/>
	<path class="st0" d="M135.6,53.6c0.4,0.1,1,0.1,1.7,0.2v2.4h-5.1v-1.7c-1.5,1.2-2.8,2-4.8,2h-0.4c-2.5,0-3.7-0.5-3.7-3.8v-0.4
		c0-3,1.7-3.5,3.9-3.8c1.9-0.3,3-0.3,5.1-0.6v-0.6c0-1.9-0.8-2.5-2.5-2.5c-0.8,0-1.9,0.1-2.8,0.3l-0.2,1.5h-2.5V43
		c1.8-0.4,4.3-0.7,5.9-0.7h1.1c3,0,4.5,1.8,4.5,4.8V53.6z M128.8,53.9c1.2,0,2.4-0.8,3.3-1.7v-2.5c-0.9,0.1-2.4,0.3-3.6,0.4
		c-1.4,0.2-1.9,0.6-1.9,1.8v0.4c0,1.2,0.4,1.7,1.7,1.7H128.8z"/>
	<path class="st0" d="M138.7,46c0-2.5,1.8-3.7,5.3-3.7h0.5c1.5,0,4,0.3,5.7,0.9v3.4h-2.8l-0.2-1.6c-0.8-0.3-1.8-0.4-2.7-0.4
		c-1.8,0-2.7,0.4-2.7,1.4v0.2c0,1.2,0.8,1.1,4.5,1.8c3.2,0.6,4.3,1.5,4.3,3.5v0.8c0,3-1.7,4.3-5.2,4.3h-1c-1.5,0-4.3-0.2-5.6-1.5
		v-3.2h2.7l0.1,1.3c0.5,0.8,1.9,1,2.7,1h0.8c1.5,0,2.3-0.5,2.3-1.7v-0.3c0-1.1-0.7-1.3-4.2-1.9c-3.5-0.6-4.4-1.6-4.4-3.6V46z"/>
	<path class="st0" d="M158.8,53.6c0.9,0,1.6,0,2.5-0.1v1.9c-1.1,0.6-2.8,1-4.2,1h-0.3c-2.1,0-3.2-1.2-3.2-3.7v-7.7h-1.7v-2.5h1.3
		c0.5,0,0.7-0.2,0.7-0.6v-3c1.4-0.2,2-0.3,3.1-0.3v3.9h3.9v2.5H157v6.1c0,1.9,0.2,2.4,1.5,2.4H158.8z"/>
	<path class="st0" d="M169.6,42.3c3.9,0,5.7,1.8,5.7,5.5v3.2H166v0.6c0,1.7,1.1,2.5,2.7,2.5h1c1.1,0,2-0.2,2.4-1.2l0.1-0.5h2.7v2.3
		c-1.3,1.3-3.4,1.9-5.3,1.9h-0.8c-4.4,0-6.1-1.8-6.1-6.2V48c0-3.9,2-5.8,6.1-5.8H169.6z M172.2,47c0-1.6-1.1-2.4-2.8-2.4h-0.8
		c-1.7,0-2.7,0.9-2.7,2.5v1.3h6.3V47z"/>
	<path class="st0" d="M191,53.6c0.3,0,0.8,0.1,1.8,0.2v2.4h-5.3v-8.4c0-2.2-0.2-2.6-1.7-2.6h-0.3c-1.2,0-2.4,0.6-3.7,1.5v6.9
		c0.5,0,1.1,0.1,1.7,0.2v2.4h-6.9v-2.4c0.6-0.1,1.2-0.2,1.7-0.2v-8.4c-0.5,0-1.1-0.1-1.6-0.2v-2.4h5.1v2.1c1.6-1.2,3.4-2.4,5.4-2.4
		h0.3c2.3,0,3.4,1.1,3.4,3.7V53.6z"/>
	<path class="st0" d="M199.5,53.6c0.5,0,1.1,0.1,1.7,0.2v2.4h-6.9v-2.4c0.6-0.1,1.2-0.2,1.7-0.2v-8.4c-0.5,0-1.1-0.1-1.6-0.2v-2.4
		h5.1V53.6z M195.8,38.9c0-1.1,0.9-1.8,2-1.8c1.1,0,1.9,0.7,1.9,1.8c0,1.1-0.9,1.8-1.9,1.8C196.7,40.7,195.8,40,195.8,38.9z"/>
	<path class="st0" d="M209.6,42.3c3.9,0,5.7,1.8,5.7,5.5v3.2h-9.3v0.6c0,1.7,1.1,2.5,2.7,2.5h1c1.1,0,2-0.2,2.4-1.2l0.1-0.5h2.7v2.3
		c-1.3,1.3-3.4,1.9-5.3,1.9h-0.8c-4.4,0-6.1-1.8-6.1-6.2V48c0-3.9,2-5.8,6.1-5.8H209.6z M212.2,47c0-1.6-1.1-2.4-2.8-2.4h-0.8
		c-1.7,0-2.7,0.9-2.7,2.5v1.3h6.3V47z"/>
	<path class="st0" d="M221.9,45.1c1.2-1.5,2.3-2.7,4.1-2.7h1.3v3.2l-2.4,0.2c-1.1,0-2,0.3-3,1.4v6.5c0.5,0,1.1,0.1,1.9,0.2v2.4h-7.1
		v-2.4c0.6-0.1,1.2-0.2,1.7-0.2v-8.4c-0.5,0-1.1-0.1-1.6-0.2v-2.4h5.1V45.1z"/>
	<path class="st0" d="M242.4,55.3v0.9h-3.3v-2.1c-1.9,1.5-3.2,2.3-5.5,2.3h-0.5c-2.7,0-3.6-0.6-3.6-3.3v-0.9c0-2.9,1.4-3.3,3.6-3.5
		c2.1-0.2,4.4-0.4,6-0.5v-0.8c0-3-1-3.7-3.6-3.7c-1.3,0-2.9,0.2-4.2,0.7l-0.1,1.9h-0.9v-2.6c1.5-0.5,3.9-0.9,5.1-0.9h0.8
		c3.1,0,4.1,1.6,4.1,4.5v7.9L242.4,55.3z M233.9,55.4c1.9,0,3.3-0.8,5.1-2.3V49c-1.3,0.1-4.1,0.3-5.6,0.5c-2.1,0.2-2.7,0.7-2.7,2.7
		v0.7c0,2,0.5,2.5,2.7,2.5H233.9z"/>
	<path class="st0" d="M257.4,55.3v0.9h-3.3V54c-1.9,1.5-3.2,2.4-5.6,2.4H248c-2.3,0-3.6-1.3-3.6-4.4v-5c0-2.8,1.3-4.3,3.6-4.3h0.5
		c2.4,0,3,0.2,5.5,1.7V39c-0.2,0-0.8,0-2.4-0.1V38h3.6v17.1L257.4,55.3z M248.9,55.3c1.9,0,3.2-0.7,5.1-2.2v-7.9
		c-2.5-1.5-3.2-1.5-5.1-1.5h-0.5c-1.9,0-2.7,1.3-2.7,3.5v4.4c0,2.5,0.9,3.6,2.8,3.6H248.9z"/>
	<path class="st0" d="M273.1,43.9c-0.8,0.1-1.5,0.1-2.2,0.1l-5,12.1h-1.3L259.7,44c-0.6,0-1.2-0.1-1.9-0.1v-0.9h5.4v0.9
		c-0.8,0.1-1.5,0.1-2.2,0.1l4.3,10.9h0l4.5-10.9c-0.6,0-1.3-0.1-2-0.1v-0.9h5.3V43.9z"/>
	<path class="st0" d="M279.6,56.4c-3.4,0-5.2-1.6-5.2-4.8v-3.9c0-3.2,1.7-4.9,5.2-4.9h1.5c3.4,0,5.1,1.6,5.1,4.9v3.9
		c0,3.2-1.7,4.8-5.1,4.8H279.6z M281,55.4c2.5,0,3.9-1.3,3.9-3.7v-4.3c0-2.4-1.3-3.7-3.9-3.7h-1.5c-2.5,0-3.9,1.3-3.9,3.7v4.3
		c0,2.4,1.3,3.7,3.9,3.7H281z"/>
	<path class="st0" d="M299.9,54.3c-0.9,1.4-2.6,2.1-4.5,2.1h-1.3c-3.3,0-5-1.6-5-4.7v-4.3c0-3.1,1.8-4.7,5-4.7h0.8
		c1.7,0,3.3,0.4,4.7,1.1v2.8h-0.9l-0.2-2.1c-1.4-0.6-2.3-0.8-4.3-0.8c-2.5,0-3.9,1.3-3.9,3.9v4.1c0,2.6,1.4,3.8,3.9,3.8h1.1
		c1.6,0,2.9-0.5,3.5-1.7l0.1-0.2h1V54.3z"/>
	<path class="st0" d="M315.6,55.3v0.9h-3.3v-2.1c-1.9,1.5-3.2,2.3-5.5,2.3h-0.5c-2.7,0-3.6-0.6-3.6-3.3v-0.9c0-2.9,1.4-3.3,3.6-3.5
		c2.1-0.2,4.4-0.4,6-0.5v-0.8c0-3-1-3.7-3.6-3.7c-1.3,0-2.9,0.2-4.2,0.7l-0.1,1.9h-0.9v-2.6c1.5-0.5,3.9-0.9,5.1-0.9h0.8
		c3.1,0,4.1,1.6,4.1,4.5v7.9L315.6,55.3z M307.2,55.4c1.9,0,3.3-0.8,5.1-2.3V49c-1.3,0.1-4.1,0.3-5.6,0.5c-2.1,0.2-2.7,0.7-2.7,2.7
		v0.7c0,2,0.5,2.5,2.7,2.5H307.2z"/>
	<path class="st0" d="M321.8,55.4c0.9,0,1.5,0,2.4-0.1v0.8c-1.1,0.3-1.9,0.4-2.9,0.4h-0.3c-1.9,0-2.6-0.9-2.6-3.5V44h-1.8v-1h1.5
		c0.3,0,0.4-0.2,0.4-0.5v-3.5c0.5-0.1,0.8-0.1,1.2-0.1v4.1h4v1h-4v8.4c0,2.3,0.4,2.9,1.9,2.9H321.8z"/>
	<path class="st0" d="M332.4,42.7c3.4,0,5,1.6,5,4.7v2.7h-10v1.6c0,2.5,1.4,3.7,3.9,3.7h1.2c1.6,0,2.9-0.5,3.5-1.7l0.1-0.3h0.9v0.8
		c-0.9,1.5-2.7,2.1-4.5,2.1h-1.1c-3.5,0-5.2-1.6-5.2-4.9v-3.8c0-3.2,1.9-5,5.3-5H332.4z M336.3,47.4c0-2.4-1.4-3.7-3.9-3.7h-0.8
		c-2.6,0-4.1,1.4-4.1,3.9v1.7h8.8V47.4z"/>
	<path class="st0" d="M352.7,55.2c0.2,0,0.9,0.1,2.3,0.1v0.9h-3.6v-9.4c0-2.4-0.4-3-2.3-3h-0.3c-1.9,0-3.8,1.1-5.8,2.6v8.8
		c0.6,0,1.3,0.1,2.1,0.1v0.9h-5.4v-0.9c0.8-0.1,1.4-0.1,2.1-0.1V44c-0.6,0-1.3-0.1-1.9-0.1v-0.9h3.2v2.5c1.9-1.5,3.9-2.8,6.2-2.8
		h0.3c2.3,0,3.1,0.7,3.1,3.4V55.2z"/>
</g>
</svg>
