<?xml version="1.0" encoding="utf-8"?>
<!-- Generator: Adobe Illustrator 19.1.0, SVG Export Plug-In . SVG Version: 6.00 Build 0)  -->
<svg version="1.1" id="Layer_1" xmlns="http://www.w3.org/2000/svg" xmlns:xlink="http://www.w3.org/1999/xlink" x="0px" y="0px"
	 width="93.6px" height="93.6px" viewBox="0 0 93.6 93.6" style="enable-background:new 0 0 93.6 93.6;" xml:space="preserve">
<style type="text/css">
	.st0{fill:#FFFFFF;}
</style>
<g>
	<path class="st0" d="M46.8,93.6L0,46.8L46.8,0l46.8,46.8L46.8,93.6z M7,46.8l39.8,39.8l39.8-39.8L46.8,7L7,46.8z"/>
</g>
<g>
	<path class="st0" d="M58.1,41c0,2.8-1.2,4.6-3.4,5.4c2.4,0.6,3.9,2.6,3.9,6v0.6c0,5.8-2.6,7.5-9,7.5H35.1v-3.9
		c1.3-0.2,2.3-0.3,3.1-0.4V37.2c-0.7-0.1-1.8-0.2-3.2-0.4V33h14c6.5,0,9.1,2.3,9.1,7.6V41z M48.8,44.5c2.8,0,4-0.7,4-3.1v-0.6
		c0-2.4-0.7-3.4-3.7-3.4h-5.6v7.1H48.8z M53.1,51.7c0-2.4-1.5-3-4.3-3h-5.2v7.5h5.2c2.9,0,4.3-1.3,4.3-3.8V51.7z"/>
</g>
</svg>
