<?xml version="1.0" encoding="utf-8"?>
<!-- Generator: Adobe Illustrator 19.1.0, SVG Export Plug-In . SVG Version: 6.00 Build 0)  -->
<svg version="1.1" id="Layer_1" xmlns="http://www.w3.org/2000/svg" xmlns:xlink="http://www.w3.org/1999/xlink" x="0px" y="0px"
	 width="42px" height="42px" viewBox="-128 130 42 42" style="enable-background:new -128 130 42 42;" xml:space="preserve">
<style type="text/css">
	.st0{fill:#35404F;}
</style>
<path class="st0" d="M-89,141h-36c-1.6,0-3-1.3-3-3v-2c0-1.6,1.3-3,3-3h36c1.6,0,3,1.3,3,3v2C-86,139.6-87.3,141-89,141z"/>
<path class="st0" d="M-89,154.7h-36c-1.6,0-3-1.3-3-3v-2c0-1.6,1.3-3,3-3h36c1.6,0,3,1.3,3,3v2C-86,153.4-87.3,154.7-89,154.7z"/>
<path class="st0" d="M-89,169h-36c-1.6,0-3-1.3-3-3v-2c0-1.6,1.3-3,3-3h36c1.6,0,3,1.3,3,3v2C-86,167.7-87.3,169-89,169z"/>
</svg>
