<?xml version="1.0" encoding="utf-8"?>
<!-- Generator: Adobe Illustrator 19.2.1, SVG Export Plug-In . SVG Version: 6.00 Build 0)  -->
<svg version="1.1" id="Layer_1" xmlns="http://www.w3.org/2000/svg" xmlns:xlink="http://www.w3.org/1999/xlink" x="0px" y="0px"
	 viewBox="0 0 212.5 206" style="enable-background:new 0 0 212.5 206;" xml:space="preserve">
<style type="text/css">
	.st0{fill:#FFFFFF;}
	.st1{fill:#363940;}
	.st2{fill:#B3A96C;}
	.st3{fill:#EAEDDC;}
	.st4{fill:#B4A968;}
	.st5{fill:#35404F;}
	.st6{fill:none;stroke:#363940;stroke-width:4.924;stroke-miterlimit:10;}
</style>
<g>
	<path class="st5" d="M107.5,127.9c14.8,0,26.9-12.1,26.9-26.9c0-14.8-12.1-26.9-26.9-26.9S80.7,86.2,80.7,101
		C80.7,115.8,92.7,127.9,107.5,127.9z M125.5,111h-34c-1,0-1.8-0.5-1.8-1.5c0-1,0.8-1.5,1.8-1.5h34c1,0,1.8,0.5,1.8,1.5
		C127.2,110.5,126.4,111,125.5,111z M111.2,79.7c0.2-1,1.2-1.5,2.2-1.3c8.9,2.3,15.6,9.6,17.1,18.7c0.2,1-0.5,1.9-1.5,2.1
		c-0.1,0-0.2,0-0.3,0c-0.9,0-1.6-0.6-1.8-1.5c-1.3-7.7-7-13.9-14.5-15.8C111.5,81.7,110.9,80.7,111.2,79.7z M91.4,90h26.9
		c1,0,1.8,0.5,1.8,1.5s-0.8,1.5-1.8,1.5H91.4c-1,0-1.8-0.5-1.8-1.5S90.4,90,91.4,90z M84.2,100.5c0-1,0.8-1.5,1.8-1.5h35.8
		c1,0,1.8,0.5,1.8,1.5s-0.8,1.5-1.8,1.5H86C85,102,84.2,101.5,84.2,100.5z"/>
	<path class="st5" d="M106.3,14.2c-49,0-88.8,39.8-88.8,88.8s39.8,88.8,88.8,88.8s88.8-39.8,88.8-88.8S155.3,14.2,106.3,14.2z
		 M57.4,158.3c-1.8,0-3.7-0.7-5.1-2.1c-1.4-1.4-2.1-3.2-2.1-5.1c0-1.9,0.7-3.7,2.1-5.1l17.9-17.9c1.4-1.4,3.2-2.1,5.1-2.1
		c1.3,0,2.5,0.3,3.6,1l5.9-5.9c-4.8-5.4-7.7-12.5-7.7-20.2c0-16.8,13.7-30.5,30.5-30.5S138,84.2,138,101c0,16.8-13.7,30.5-30.5,30.5
		c-7.8,0-14.8-2.9-20.2-7.7l-5.9,5.9c0.6,1.1,1,2.3,1,3.6c0,1.9-0.7,3.7-2.1,5.1l-17.9,17.9C61,157.6,59.2,158.3,57.4,158.3z
		 M152.5,153c0,3-2.6,5-5.6,5H69.9c-1,0-1.8-1-1.8-2s0.8-2,1.8-2H147c1,0,1.6,0,1.6-1V69.5l-19-19.7v15.4c0,1,0.3,1.8,1.3,1.8h10.8
		c1,0,1.8,0.5,1.8,1.5c0,1-0.8,1.5-1.8,1.5h-10.8c-3,0-5.3-1.9-5.3-4.8V47H68.1c-1,0-1.6,1-1.6,2v77.1c0,1-1,1.8-2,1.8
		c-1,0-2-0.8-2-1.8V49c0-3,2.6-6,5.6-6h59.1c0,0,0,0.3,0.1,0.3c0,0,0,0.2,0.1,0.2c0.1,0,0.1,0.1,0.2,0.1c0,0,0,0,0,0
		c0.1,0,0.2,0.1,0.2,0.1c0,0,0,0,0,0c0.1,0,0.1,0.1,0.2,0.1c0,0,0,0,0,0c0.1,0,0.1,0.1,0.2,0.1c0,0,0,0,0,0c0.1,0,0.1,0.1,0.2,0.2
		c0,0,0,0,0,0l23.3,23.3c0,0,0,0,0,0c0,0,0.1,0.1,0.1,0.1c0,0,0,0,0.1,0.1c0,0,0,0,0.1,0.1c0,0,0,0.1,0,0.1c0,0,0,0,0,0.1
		c0,0,0,0.1,0,0.1c0,0,0,0.1,0,0.1c0,0,0,0.1,0,0.1c0,0,0,0.1,0,0.1c0,0,0,0.1,0,0.1c0,0,0,0.1,0,0.1c0,0,0,0.1,0,0.1
		c0,0,0.1,0,0.1,0.1c0,0.1,0.1,0.1,0.1,0.2V153z"/>
	<path class="st5" d="M75.3,129.7c-1,0-1.9,0.4-2.5,1l-17.9,17.9c-0.7,0.7-1,1.6-1,2.5s0.4,1.9,1,2.5c1.4,1.4,3.7,1.4,5.1,0
		l17.9-17.9c0.7-0.7,1-1.6,1-2.5c0-1-0.4-1.9-1-2.5C77.1,130,76.2,129.7,75.3,129.7z"/>
</g>
</svg>
