<?xml version="1.0" encoding="utf-8"?>
<!-- Generator: Adobe Illustrator 19.2.1, SVG Export Plug-In . SVG Version: 6.00 Build 0)  -->
<svg version="1.1" id="Layer_1" xmlns="http://www.w3.org/2000/svg" xmlns:xlink="http://www.w3.org/1999/xlink" x="0px" y="0px"
	 viewBox="0 0 212.5 206" style="enable-background:new 0 0 212.5 206;" xml:space="preserve">
<style type="text/css">
	.st0{fill:#FFFFFF;}
	.st1{fill:#363940;}
	.st2{fill:#B3A96C;}
	.st3{fill:#EAEDDC;}
	.st4{fill:#B4A968;}
	.st5{fill:#35404F;}
	.st6{fill:none;stroke:#363940;stroke-width:4.924;stroke-miterlimit:10;}
</style>
<g>
	<polygon class="st5" points="113.9,136.8 111.7,133.4 99.7,143.7 105,149 	"/>
	<polygon class="st5" points="95.9,154 95.2,157 99,157 98.3,154 	"/>
	<polygon class="st5" points="80.3,136.8 89.2,149 94.5,143.7 82.5,133.4 	"/>
	<path class="st5" d="M90.2,153c-0.3,0.3-0.8,0.5-1.3,0.5c0,0-0.1,0-0.1,0c-0.5,0-1-0.3-1.3-0.7l-10.2-14l-10.4,2.1
		c-5,1.4-7.9,6.4-7.9,10.7v3.4c0,1,1.5,2,2.8,2h29.8l1.1-5.4c-0.1-0.2-0.2-0.4-0.3-0.6L90.2,153z"/>
	<path class="st5" d="M95.9,150h2.4c0.2,0,0.7-0.8,0.7-1.4v-0.7l-2-1.8l-2,1.8v0.7C95,149.2,95.7,150,95.9,150z"/>
	<path class="st5" d="M138.3,49.2c-15.8,0-28.7,12.9-28.7,28.7c0,15.8,12.9,28.7,28.7,28.7c15.8,0,28.7-12.9,28.7-28.7
		C167,62.1,154.2,49.2,138.3,49.2z M158,74.3c0,1-1,1.8-2,1.8c-1,0-2-0.8-2-1.8v-6.4l-15,14.9c0,0,0,0,0,0c0,0.3-0.3,0.4-0.6,0.5
		c-0.1,0-0.1,0-0.2,0c-0.1,0-0.2,0-0.3,0c-0.3-0.1-0.6-0.2-0.9-0.5l-4.1-4.1l-13.1,13.1c-0.3,0.4-0.8,0.5-1.3,0.5
		c-0.5,0-0.9-0.2-1.3-0.5c-0.7-0.7-0.7-1.8,0-2.5l14.3-14.3c0.7-0.7,1.8-0.7,2.5,0l4.1,4.4L151.9,66h-6.4c-1,0-1.8-1-1.8-2
		c0-1,0.8-2,1.8-2h10.8c0.1,0,0.1-0.1,0.2-0.1c0,0,0.1,0,0.1,0c0,0,0.1,0,0.1,0c0,0,0.1,0,0.1,0c0,0,0.1,0,0.1,0c0,0,0.1,0,0.1,0
		c0,0,0.1,0,0.1,0c0,0,0.1,0,0.1,0c0,0,0.1,0,0.1,0c0,0,0,0,0.1,0c0,0,0.1,0,0.1,0c0,0,0.1,0,0.1,0.1c0,0,0,0,0.1,0
		c0.1,0.1,0.2,0.2,0.2,0.3c0,0,0,0,0,0.1c0,0,0,0.1,0.1,0.1c0,0,0,0.1,0,0.1c0,0,0,0,0,0.1c0,0,0,0.1,0,0.1c0,0,0,0.1,0,0.1
		c0,0,0,0.1,0,0.1c0,0,0,0.1,0,0.1c0,0,0,0.1,0,0.1c0,0,0,0.1,0,0.1c0,0,0,0.1,0,0.1c0,0,0,0.1,0,0.1c0,0.1,0,0.1,0,0.2V74.3z"/>
	<path class="st5" d="M127.2,140.9l-10.3-2.1l-10.2,14c-0.3,0.4-0.8,0.7-1.3,0.7c0,0-0.1,0-0.1,0c-0.5,0-0.9-0.2-1.3-0.5l-2.1-2.1
		c-0.1,0.2-0.2,0.5-0.3,0.6l1.1,5.4h29.8c1.2,0,2.6-1.1,2.6-2v-3.4C135,147.4,132.2,142.4,127.2,140.9z"/>
	<path class="st5" d="M106.3,14.2c-49,0-88.8,39.8-88.8,88.8s39.8,88.8,88.8,88.8s88.8-39.8,88.8-88.8S155.3,14.2,106.3,14.2z
		 M75.8,79.1c2.1-2.5,5.1-3.8,8.5-3.8c0.1,0,0.1,0,0.2,0c5-3.4,11.1-3,16.5-2.1c1,0.2,1.6,1.1,1.5,2.1c-0.2,1-1.1,1.6-2.1,1.5
		c-5.1-0.9-10.3-1.3-14.3,1.7c-0.3,0.2-0.7,0.4-1.1,0.4c-0.1,0-0.3,0-0.4,0c-0.1,0-0.2,0-0.4,0c-3.9,0-7.9,2.8-7.9,9.1
		c0,2.5,0.6,6.3,1.2,9.6c1.3-3.5,2.9-6.2,3-6.4c0.3-0.5,0.9-0.9,1.5-0.9c7.9-1,15.5-0.7,22.6,0.9c1,0.2,1.6,1.2,1.4,2.1
		c-0.2,0.8-0.9,1.4-1.7,1.4c-0.1,0-0.3,0-0.4,0c-6.5-1.4-13.5-1.7-20.7-0.9c-1.1,2.1-4.2,8.2-4.2,12.6v2.1c0,5.4,2.1,10.9,5.5,15
		c3.5,4.2,8,6.5,12.6,6.5c4.6,0,9.1-2.3,12.5-6.5c3.4-4.1,5.4-9.6,5.4-15v0c0-1,0.5-1.8,1.5-1.8c1,0,1.5,0.8,1.5,1.8v0
		c0,6.2-2,12.5-5.9,17.3c-4.2,5-9.4,7.8-15.1,7.8s-11.4-2.8-15.5-7.8c-4-4.8-6.4-11.1-6.4-17.3v-2.9c0-1.6-2.5-12-2.5-17.6
		C72.5,84.5,73.9,81.4,75.8,79.1z M138,155c0,3-2.3,6-5.6,6h-31.2c0,0,0,0,0,0h0H93h0h0H61.8c-3.2,0-5.8-3.1-5.8-6v-3.4
		c0-3,0.9-6.1,2.6-8.6c1.9-2.8,4.5-4.7,7.6-5.6c0,0,0.1,0,0.1,0l10.7-2.2l2.8-4.3c0,0,0-0.1,0.1-0.1c0.5-0.7,1.3-1.1,2.1-1.2
		c0.8-0.1,1.7,0.1,2.4,0.7l0,0l12.7,10.9l12.7-10.9c0,0,0,0,0,0c0.7-0.5,1.5-0.8,2.4-0.7c0.8,0.1,1.6,0.6,2.1,1.2c0,0,0,0.1,0.1,0.1
		l2.8,4.3l10.7,2.2c0,0,0.1,0,0.1,0c3.1,0.9,5.6,2.8,7.5,5.6c1.7,2.5,2.5,5.6,2.5,8.6V155z M138.3,110.2
		c-17.8,0-32.3-14.5-32.3-32.3c0-17.8,14.5-32.3,32.3-32.3c17.8,0,32.3,14.5,32.3,32.3C170.6,95.7,156.1,110.2,138.3,110.2z"/>
</g>
</svg>
