<?xml version="1.0" encoding="utf-8"?>
<!-- Generator: Adobe Illustrator 19.2.1, SVG Export Plug-In . SVG Version: 6.00 Build 0)  -->
<svg version="1.1" id="Layer_1" xmlns="http://www.w3.org/2000/svg" xmlns:xlink="http://www.w3.org/1999/xlink" x="0px" y="0px"
	 viewBox="0 0 212.5 206" style="enable-background:new 0 0 212.5 206;" xml:space="preserve">
<style type="text/css">
	.st0{fill:#FFFFFF;}
	.st1{fill:#363940;}
	.st2{fill:#B3A96C;}
	.st3{fill:#EAEDDC;}
	.st4{fill:#B4A968;}
	.st5{fill:#35404F;}
	.st6{fill:none;stroke:#363940;stroke-width:4.924;stroke-miterlimit:10;}
</style>
<g>
	<path class="st5" d="M118.8,115.6L136.4,98c-0.4-1.4-0.9-2.8-1.5-4.1l-18.9,18.9L118.8,115.6z"/>
	<path class="st5" d="M124.1,121l13.4-13.4c0-0.4,0-0.7,0-1.1c0-1.5-0.1-2.9-0.3-4.3l-16,16L124.1,121z"/>
	<path class="st5" d="M109.1,76.1v6.4l5.5-5.5C112.9,76.5,111.1,76.2,109.1,76.1z"/>
	<path class="st5" d="M129.9,126.7c3.4-3.8,5.8-8.4,6.9-13.3l-10.1,10.1L129.9,126.7z"/>
	<path class="st5" d="M106.1,49.2c0-1,0.5-1.8,1.5-1.8s1.5,0.8,1.5,1.8v5.1c2-0.7,3.5-2.7,3.5-5.1c0-3-2.5-5.4-5.4-5.4s-5,2.4-5,5.4
		c0,2.3,2,4.3,4,5.1V49.2z"/>
	<path class="st5" d="M113.4,110.2l19.7-19.7c-0.7-1.2-1.5-2.3-2.4-3.3l-20.2,20.2L113.4,110.2z"/>
	<path class="st5" d="M109.1,87.5v5.7L122.2,80c-1.2-0.7-2.5-1.3-3.8-1.8L109.1,87.5z"/>
	<path class="st5" d="M107.1,61.7c-24.7,0-44.8,20.1-44.8,44.8c0,24.7,20.1,44.8,44.8,44.8c24.7,0,44.8-20.1,44.8-44.8
		C151.9,81.8,131.8,61.7,107.1,61.7z M132.1,75.9c0.7-0.7,1.8-0.8,2.5-0.1c1.1,1,2.2,2.1,3.2,3.2c0.7,0.7,0.6,1.9-0.1,2.5
		c-0.3,0.3-0.8,0.5-1.2,0.5c-0.5,0-1-0.2-1.3-0.6c-0.9-1-1.9-2-3-3C131.5,77.8,131.4,76.7,132.1,75.9z M132,83.3
		c0,0,0.1,0.1,0.1,0.1c0.1,0.1,0.1,0.1,0.2,0.2c1.7,1.9,3.3,4,4.5,6.3c0.1,0.1,0.1,0.2,0.2,0.3c1.3,2.5,2.4,5.1,3.1,7.9
		c0,0.1,0,0.1,0.1,0.2c0.7,2.7,1,5.4,1,8.3c0,9.1-3.5,17.6-10,24.1c-0.4,0.4-0.8,0.5-1.3,0.5c-0.5,0-0.9-0.2-1.3-0.5l-22.4-22.8
		c-0.3-0.3-0.1-0.8-0.1-1.3V74.3c0-1,0.4-1.8,1.4-1.8c3.9,0,7.5,0.7,11,1.9c0.1,0,0.1,0.1,0.2,0.1C123.8,76.3,128.3,79.3,132,83.3z
		 M139.8,84.3c0.8-0.5,1.9-0.3,2.5,0.6c4,6.5,6.1,13.9,6.1,21.6c0,22.7-18.5,41.2-41.2,41.2c-22.7,0-41.2-18.5-41.2-41.2
		c0-22.7,18.5-41.2,41.2-41.2c7.6,0,15.1,2.1,21.6,6.1c0.8,0.5,1.1,1.6,0.6,2.5c-0.5,0.8-1.6,1.1-2.5,0.6
		c-5.9-3.6-12.7-5.6-19.7-5.6c-20.8,0-37.6,16.9-37.6,37.6c0,20.8,16.9,37.6,37.6,37.6c20.8,0,37.6-16.9,37.6-37.6
		c0-7-1.9-13.8-5.6-19.7C138.7,86,138.9,84.9,139.8,84.3z"/>
	<path class="st5" d="M107.1,14c-49,0-88.8,39.8-88.8,88.8s39.8,88.8,88.8,88.8s88.8-39.8,88.8-88.8S156.2,14,107.1,14z
		 M141.3,140.7c-9.1,9.1-21.3,14.2-34.2,14.2s-25.1-5-34.2-14.2c-9.1-9.1-14.2-21.3-14.2-34.2c0-12.9,5.4-25.1,14.6-34.2
		c8.7-8.7,19.8-13.7,32.8-14.1v-0.2c-4-0.8-7.6-4.5-7.6-8.8c0-4.9,3.8-9,8.8-9s9,4,9,9c0,4.3-3.2,7.9-7.2,8.8v0.2
		c8,0.3,14.5,2.2,20.9,5.7l3.2-5.6l-3.6-2.1c-0.9-0.5-1.2-1.6-0.7-2.4c0.5-0.9,1.6-1.2,2.4-0.7l10.3,5.9c0.9,0.5,1.1,1.6,0.7,2.4
		c-0.3,0.6-0.9,0.9-1.6,0.9c-0.3,0-0.6-0.1-0.9-0.2l-3.6-2.1l-3.2,5.6c3,1.9,5.7,4.1,8.3,6.7c9.1,9.1,14.2,21.3,14.2,34.2
		C155.5,119.4,150.5,131.6,141.3,140.7z"/>
	<path class="st5" d="M109.1,104l19.3-19.4c-1-0.9-1.9-1.8-3-2.6l-16.2,16.3V104z"/>
</g>
</svg>
